<svg xmlns="http://www.w3.org/2000/svg" width="45" height="45.014" viewBox="0 0 45 45.014">
  <g id="그룹_864" data-name="그룹 864" transform="translate(-201.521 -375.44)">
    <path id="패스_658" data-name="패스 658" d="M224.066,375.44a22.507,22.507,0,1,1-22.545,22.417A22.447,22.447,0,0,1,224.066,375.44Zm-2.395,25.012c.021.4.042.62.043.843.006,2.245-.021,4.491.024,6.735a2.236,2.236,0,0,0,4.453.309,13.075,13.075,0,0,0,.092-2.047c.011-1.924,0-3.849,0-5.84,2.367,0,4.57.021,6.772-.007,1.747-.021,2.762-.961,2.682-2.408a2.189,2.189,0,0,0-2.432-2.149c-2.308-.023-4.617-.006-7.021-.006,0-2.116.005-4.088,0-6.059-.006-1.852-.842-2.942-2.272-2.985-1.4-.042-2.286,1.076-2.3,2.913,0,.761,0,1.523,0,2.284v3.846h-1.384c-1.9,0-3.806-.026-5.708.023a2.178,2.178,0,0,0-2.236,2.011,2.219,2.219,0,0,0,1.9,2.444,6.157,6.157,0,0,0,1.247.089C217.541,400.456,219.552,400.452,221.671,400.452Z" transform="translate(0 0)"/>
    <path id="패스_659" data-name="패스 659" d="M243.254,423.113c-2.119,0-4.13,0-6.141,0a6.167,6.167,0,0,1-1.247-.089,2.219,2.219,0,0,1-1.9-2.444,2.178,2.178,0,0,1,2.236-2.011c1.9-.048,3.805-.019,5.708-.023H243.3V414.7c0-.761,0-1.522,0-2.284.01-1.837.894-2.955,2.3-2.913,1.43.042,2.266,1.133,2.272,2.985.006,1.972,0,3.943,0,6.059,2.4,0,4.713-.017,7.021.006a2.189,2.189,0,0,1,2.432,2.149c.08,1.447-.934,2.386-2.682,2.408-2.2.027-4.405.007-6.772.007,0,1.991.007,3.916,0,5.84a13.068,13.068,0,0,1-.092,2.047,2.236,2.236,0,0,1-4.453-.309c-.045-2.244-.018-4.49-.024-6.735C243.3,423.733,243.275,423.51,243.254,423.113Z" transform="translate(-21.583 -22.662)" fill="#fff"/>
  </g>
</svg>
