<svg id="Settings" xmlns="http://www.w3.org/2000/svg" width="29" height="29" viewBox="0 0 29 29">
  <rect id="사각형_193" data-name="사각형 193" width="29" height="29" fill="none"/>
  <path id="패스_104" data-name="패스 104" d="M273.915,18.125A3.626,3.626,0,1,0,270.2,14.5,3.679,3.679,0,0,0,273.915,18.125Zm-7.607-11.6a10.541,10.541,0,0,1,4.453-2.356L272.245,0h3.711l1.484,4.169a13.053,13.053,0,0,1,4.453,2.356l4.453-.906L288.2,8.881l-2.968,3.262a10.1,10.1,0,0,1,.186,2.356c0,.725-.186,1.631-.186,2.356l2.968,3.263-1.855,3.262-4.453-.906a10.541,10.541,0,0,1-4.453,2.356L275.955,29h-3.711l-1.484-4.169a13.053,13.053,0,0,1-4.453-2.356l-4.453.906L260,20.119l2.968-3.263a10.1,10.1,0,0,1-.186-2.356c0-.725.186-1.631.186-2.356L260,8.881l1.855-3.263Z" transform="translate(-260)" fill="#fff" fill-rule="evenodd"/>
</svg>
