<svg id="그룹_846" data-name="그룹 846" xmlns="http://www.w3.org/2000/svg" width="32.677" height="32.628" viewBox="0 0 32.677 32.628">
  <path id="패스_653" data-name="패스 653" d="M-267.468,306.7c0-3.887-.014-7.773.006-11.66a4.411,4.411,0,0,1,3.279-4.491,2.736,2.736,0,0,1,.738-.121c3.284-.005,6.57-.068,9.851.028a4.2,4.2,0,0,1,3.89,3.918c.087,2.128.05,4.261.029,6.392a1.4,1.4,0,0,1-1.34,1.452,1.4,1.4,0,0,1-1.565-1.28,4.444,4.444,0,0,1-.062-.82c-.006-1.73.01-3.461-.01-5.191a1.418,1.418,0,0,0-1.466-1.565q-4.439-.05-8.879,0a1.46,1.46,0,0,0-1.5,1.554c-.012.175-.005.351-.005.526q0,11.209,0,22.417c0,1.787.427,2.211,2.216,2.211q3.837,0,7.675,0c1.451,0,1.952-.492,1.959-1.925.008-1.6,0-3.21,0-4.814a4.9,4.9,0,0,1,.068-.9,1.375,1.375,0,0,1,1.52-1.238,1.381,1.381,0,0,1,1.378,1.407c.023,2.181.063,4.365-.031,6.543a4.206,4.206,0,0,1-3.836,3.807c-3.306.092-6.619.105-9.925.006a4.214,4.214,0,0,1-3.965-4c-.024-.325-.033-.651-.033-.976Q-267.47,312.34-267.468,306.7Z" transform="translate(267.473 -290.401)" fill="#fff"/>
  <path id="패스_654" data-name="패스 654" d="M-189.5,341.641h-4.539q-6.022,0-12.044,0a4.093,4.093,0,0,1-.965-.1,1.36,1.36,0,0,1-1.1-1.349,1.415,1.415,0,0,1,1.082-1.441,3.864,3.864,0,0,1,.965-.1q7.791-.009,15.582,0h.964c-.278-.307-.445-.507-.629-.691q-2.632-2.637-5.267-5.271a4.667,4.667,0,0,1-.542-.62,1.441,1.441,0,0,1,.139-1.858,1.416,1.416,0,0,1,1.8-.221,4.173,4.173,0,0,1,.749.622q4.025,4.011,8.039,8.033c1.159,1.16,1.16,1.827.009,2.977q-4.1,4.1-8.195,8.2a1.627,1.627,0,0,1-1.865.61,1.471,1.471,0,0,1-.4-2.524c1.851-1.874,3.723-3.728,5.585-5.591C-189.958,342.134-189.793,341.952-189.5,341.641Z" transform="translate(217.072 -323.839)" fill="#fff"/>
</svg>
