<svg id="Calendar" xmlns="http://www.w3.org/2000/svg" width="31" height="31" viewBox="0 0 31 31">
  <rect id="사각형_557" data-name="사각형 557" width="31" height="31" fill="none"/>
  <path id="패스_149" data-name="패스 149" d="M3.779,9.447v17H26.452v-17ZM24.562,3.779h3.779a1.785,1.785,0,0,1,1.889,1.889V28.341a1.785,1.785,0,0,1-1.889,1.889H1.889A1.785,1.785,0,0,1,0,28.341V5.668A1.785,1.785,0,0,1,1.889,3.779H5.668V1.889A1.785,1.785,0,0,1,7.558,0,1.785,1.785,0,0,1,9.447,1.889V3.779H20.784V1.889a1.889,1.889,0,1,1,3.779,0ZM22.673,22.673H18.894V18.894h3.779Zm-5.668,0H13.226V18.894H17ZM22.673,17H18.894V13.226h3.779ZM17,17H13.226V13.226H17Zm-5.668,5.668H7.558V18.894h3.779Z" fill-rule="evenodd"/>
</svg>
